<?xml version="1.0" encoding="utf-8"?>
<!-- Svg Vector Icons : http://www.onlinewebfonts.com/icon -->
<!DOCTYPE svg PUBLIC "-//W3C//DTD SVG 1.1//EN" "http://www.w3.org/Graphics/SVG/1.1/DTD/svg11.dtd">
<svg width="25px" height="17px" version="1.1" xmlns="http://www.w3.org/2000/svg" xmlns:xlink="http://www.w3.org/1999/xlink"  x="0px" y="0px" viewBox="0 0 1000 1000" enable-background="new 0 0 1000 1000" fill="#FFFFFF" style="margin-left:-3px">
  <g>
    <path d="M978.5,524.7c-15.6,15.7-41.3,16-57.4,0.7L501.3,123.8l-423,412.5c-15.9,15.5-41.4,15.2-56.9-0.7c-15.5-15.9-15.2-41.4,0.7-56.9l421-410.5c0,0,12.6-16.9,51.5-50.3h0c0,0-2.1,1.8,6.4-5.5l476.7,456.1C993.8,483.8,994.1,509,978.5,524.7L978.5,524.7z M815.4,987.6H190c-27.6,0-50-22.4-50-50V637.4h75v275.2h575.3V637.4h75v300.2C865.5,965.2,843.1,987.6,815.4,987.6L815.4,987.6z"/>
  </g>
</svg>