<?xml version="1.0" encoding="UTF-8" standalone="no"?>
<svg
  
   xmlns="http://www.w3.org/2000/svg"
   class="unipi-logo"
   xml:space="preserve"
   version="1.1"
   style="clip-rule:evenodd;fill-rule:evenodd;image-rendering:optimizeQuality;shape-rendering:geometricPrecision;text-rendering:geometricPrecision"
   viewBox="0 0 6703.4576 1356"
   id="svg274">
 <g
   style="fill:#ffffff"
   id="Layer_x0020_1"
   transform="translate(-909,-679)">
  <metadata
   id="CorelCorpID_0Corel-Layer" />
  <path
   class="fil0"
   d="m 1381,1967 19,-58 -34,-4 2,-5 c 13,0 23,-1 36,-3 9,-2 10,-2 16,-4 l 5,2 -26,79 18,13 -1,5 -56,-19 2,-5 h 21 z"
   id="path203"
   style="fill:#ffffff;fill-opacity:1;stroke-width:1.00003499;stroke-miterlimit:4;stroke-dasharray:none" />
  <path
   class="fil0"
   d="m 1460,2029 3,-27 7,1 5,20 c 4,1 7,2 13,2 12,1 18,0 24,-4 6,-4 11,-11 11,-18 2,-15 -8,-26 -24,-28 l -6,-1 1,-9 h 2 c 18,2 28,-5 30,-21 2,-15 -6,-23 -22,-25 -5,-1 -11,-1 -15,-1 l -11,22 -7,-1 3,-27 c 15,-2 28,-3 37,-2 24,3 37,15 35,32 -2,16 -14,25 -34,27 21,4 33,17 31,34 -3,21 -23,33 -53,29 -8,-1 -13,-2 -28,-5 l -3,-1 z"
   id="path205"
   style="fill:#ffffff;fill-opacity:1;stroke-width:1.00003499;stroke-miterlimit:4;stroke-dasharray:none" />
  <path
   class="fil0"
   d="m 1606,1999 3,-5 9,-15 10,-18 12,-20 2,-3 6,57 -42,5 z m 47,36 v 0 l 16,-2 -3,-29 18,-2 -1,-12 -18,2 -9,-82 -8,1 -58,95 1,6 59,-6 3,28 z"
   id="path207"
   style="fill:#ffffff;fill-opacity:1;stroke-width:1.00003499;stroke-miterlimit:4;stroke-dasharray:none" />
  <path
   class="fil0"
   d="m 1742,2018 -9,-26 7,-2 13,16 c 4,-1 7,-1 13,-3 11,-4 16,-7 20,-14 4,-6 5,-14 2,-22 -5,-14 -18,-20 -34,-15 l -6,2 -3,-8 2,-1 c 17,-6 23,-16 18,-32 -5,-14 -15,-18 -30,-13 -4,2 -10,4 -14,6 l -1,24 -6,2 -9,-25 c 12,-8 24,-15 32,-17 23,-8 40,-2 46,14 5,15 -2,29 -19,39 20,-6 37,1 42,17 7,20 -7,40 -35,49 -8,3 -12,4 -27,7 l -3,1 z"
   id="path209"
   style="fill:#ffffff;fill-opacity:1;stroke-width:1.00003499;stroke-miterlimit:4;stroke-dasharray:none" />
  <path
   class="fil0"
   d="m 1173,1859 c -11,-10 -13,-27 -3,-39 10,-12 27,-13 39,-3 11,10 13,27 3,39 -10,12 -27,13 -39,3 z"
   id="path211"
   style="fill:#ffffff;fill-opacity:1;stroke-width:1.00003499;stroke-miterlimit:4;stroke-dasharray:none" />
  <polygon
   class="fil0"
   points="1123,1677 1031,1734 1034,1752 1030,1755 1002,1710 1006,1708 1021,1718 1113,1661 1110,1643 1114,1640 1142,1684 1138,1687 "
   id="polygon213"
   style="fill:#ffffff;fill-opacity:1;stroke-width:1.00003499;stroke-miterlimit:4;stroke-dasharray:none" />
  <polygon
   class="fil0"
   points="1086,1615 985,1654 984,1672 980,1674 968,1643 1031,1542 953,1572 953,1590 948,1591 932,1550 937,1548 949,1561 1063,1518 1065,1523 992,1639 1082,1605 1082,1587 1087,1585 1103,1626 1098,1628 "
   id="polygon215"
   style="fill:#ffffff;fill-opacity:1;stroke-width:1.00003499;stroke-miterlimit:4;stroke-dasharray:none" />
  <path
   class="fil0"
   d="m 1039,1422 -29,1 v -7 l 24,-11 c 1,-5 1,-9 0,-15 -1,-18 -8,-28 -22,-27 -10,0 -14,4 -23,18 l -12,20 c -6,11 -9,14 -15,18 -5,3 -10,5 -17,5 -21,1 -35,-14 -36,-37 0,-3 0,-9 1,-15 0,-4 1,-8 1,-10 l 1,-8 v -3 l 28,-1 v 7 l -23,10 v 2 c 0,5 0,7 0,10 1,20 7,29 20,28 9,0 13,-3 21,-17 l 13,-21 c 8,-13 9,-15 14,-19 5,-4 12,-6 20,-6 22,-1 37,15 37,41 0,6 -1,15 -2,24 l -2,11 -1,2 z"
   id="path217"
   style="fill:#ffffff;fill-opacity:1;stroke-width:1.00003499;stroke-miterlimit:4;stroke-dasharray:none" />
  <path
   class="fil0"
   d="m 915,1301 -5,-1 10,-51 5,1 4,18 78,15 c 23,4 36,-4 40,-26 4,-24 -4,-36 -26,-40 l -79,-15 -10,15 -5,-1 9,-46 5,1 4,18 75,14 c 20,4 30,11 36,25 4,10 4,19 1,34 -6,33 -22,45 -51,40 l -79,-15 -10,15 z"
   id="path219"
   style="fill:#ffffff;fill-opacity:1;stroke-width:1.00003499;stroke-miterlimit:4;stroke-dasharray:none" />
  <path
   class="fil0"
   d="m 971,1099 5,-13 c 5,-10 9,-14 17,-17 7,-2 14,-1 22,3 8,3 13,8 16,14 4,8 4,16 -1,28 l -4,8 -55,-24 z m 122,31 v 0 l -5,-2 -15,16 -41,-18 6,-13 c 12,-27 5,-50 -17,-59 -10,-5 -20,-5 -29,0 -10,5 -16,13 -23,29 l -20,46 5,2 13,-12 99,44 v 18 l 5,2 23,-51 z"
   id="path221"
   style="fill:#ffffff;fill-opacity:1;stroke-width:1.00003499;stroke-miterlimit:4;stroke-dasharray:none" />
  <path
   class="fil0"
   d="m 1037,978 8,-11 c 9,-12 22,-14 35,-4 13,10 17,24 8,36 l -8,11 -43,-31 z m 54,30 v 0 l 76,2 19,-26 -4,-3 -15,8 h -67 c 9,-18 6,-35 -9,-46 -8,-6 -17,-8 -26,-5 -9,3 -14,7 -23,19 l -32,43 4,3 15,-9 88,64 -4,18 4,3 31,-42 -4,-3 -16,10 -41,-30 z"
   id="path223"
   style="fill:#ffffff;fill-opacity:1;stroke-width:1.00003499;stroke-miterlimit:4;stroke-dasharray:none" />
  <polygon
   class="fil0"
   points="1245,920 1240,896 1245,892 1263,916 1192,979 1188,975 1196,959 1125,878 1108,884 1104,880 1175,818 1194,840 1189,845 1168,834 1136,863 1171,903 1198,879 1191,861 1196,857 1225,890 1220,893 1203,885 1177,908 1212,949 "
   id="polygon225"
   style="fill:#ffffff;fill-opacity:1;stroke-width:1.00003499;stroke-miterlimit:4;stroke-dasharray:none" />
  <polygon
   class="fil0"
   points="1359,714 1361,719 1349,732 1397,829 1415,828 1417,833 1370,856 1368,851 1380,838 1337,750 1345,869 1342,871 1253,791 1296,879 1315,877 1317,882 1277,901 1275,897 1287,883 1239,786 1221,787 1219,783 1254,766 1333,837 1325,731 "
   id="polygon227"
   style="fill:#ffffff;fill-opacity:1;stroke-width:1.00003499;stroke-miterlimit:4;stroke-dasharray:none" />
  <path
   class="fil0"
   d="m 1466,757 19,-60 8,56 z m 34,51 v 0 l -14,9 1,5 88,-12 -1,-31 -7,1 -9,23 -39,5 -7,-52 32,-4 9,17 6,-1 -6,-43 -6,1 -4,19 -32,4 -7,-55 39,-5 12,20 7,-1 -4,-29 -78,11 -46,127 -14,9 1,5 43,-6 -1,-5 -16,-5 16,-49 32,-4 6,46 z"
   id="path229"
   style="fill:#ffffff;fill-opacity:1;stroke-width:1.00003499;stroke-miterlimit:4;stroke-dasharray:none" />
  <path
   class="fil0"
   d="m 1723,708 20,6 c 17,5 27,13 32,27 4,12 4,25 0,41 -5,19 -14,31 -27,39 -12,7 -22,8 -38,3 l -18,-5 31,-110 z m -14,124 v 0 c 19,5 33,6 47,0 19,-7 32,-24 39,-47 5,-18 4,-33 -3,-48 -8,-16 -19,-24 -44,-31 l -57,-16 -1,5 14,11 -30,104 -18,2 -1,5 z"
   id="path231"
   style="fill:#ffffff;fill-opacity:1;stroke-width:1.00003499;stroke-miterlimit:4;stroke-dasharray:none" />
  <polygon
   class="fil0"
   points="1813,859 1863,763 1852,749 1854,745 1901,769 1898,773 1880,772 1830,868 1841,882 1839,886 1793,862 1795,857 "
   id="polygon233"
   style="fill:#ffffff;fill-opacity:1;stroke-width:1.00003499;stroke-miterlimit:4;stroke-dasharray:none" />
  <path
   class="fil0"
   d="m 1969,930 -23,29 -3,-1 c -15,-7 -26,-13 -37,-21 -17,-14 -25,-28 -26,-44 -1,-16 5,-32 17,-47 14,-17 32,-27 50,-28 17,-1 33,5 50,19 10,8 16,15 25,26 l 2,2 -19,23 -6,-5 8,-25 c -3,-4 -6,-7 -11,-11 -16,-13 -28,-18 -43,-16 -15,2 -28,10 -41,25 -23,28 -21,55 4,76 6,4 12,9 15,11 l 21,-25 -9,-16 3,-4 41,33 -3,4 -17,-5 z"
   id="path235"
   style="fill:#ffffff;fill-opacity:1;stroke-width:1.00003499;stroke-miterlimit:4;stroke-dasharray:none" />
  <polygon
   class="fil0"
   points="1982,989 2070,925 2066,907 2070,905 2089,931 2054,1045 2122,996 2118,979 2122,976 2148,1012 2144,1015 2128,1005 2029,1077 2026,1072 2067,941 1989,997 1993,1015 1989,1018 1963,982 1967,979 "
   id="polygon237"
   style="fill:#ffffff;fill-opacity:1;stroke-width:1.00003499;stroke-miterlimit:4;stroke-dasharray:none" />
  <polygon
   class="fil0"
   points="2063,1115 2161,1069 2161,1051 2165,1049 2187,1097 2182,1099 2169,1087 2071,1132 2071,1150 2067,1152 2045,1105 2050,1103 "
   id="polygon239"
   style="fill:#ffffff;fill-opacity:1;stroke-width:1.00003499;stroke-miterlimit:4;stroke-dasharray:none" />
  <polygon
   class="fil0"
   points="2197,1146 2171,1144 2170,1137 2201,1128 2230,1234 2198,1243 2197,1236 2217,1221 2209,1193 2102,1222 2101,1244 2096,1246 2080,1187 2085,1186 2097,1204 2204,1175 "
   id="polygon241"
   style="fill:#ffffff;fill-opacity:1;stroke-width:1.00003499;stroke-miterlimit:4;stroke-dasharray:none" />
  <path
   class="fil0"
   d="m 2218,1329 c -6,2 -9,3 -18,6 l -32,12 -2,-35 51,17 z m -57,22 v 0 l -40,16 -8,-15 h -5 l 3,50 h 5 l 7,-15 119,-49 -1,-11 -123,-44 -8,-15 h -5 l 2,43 h 5 l 7,-15 42,13 2,42 z"
   id="path243"
   style="fill:#ffffff;fill-opacity:1;stroke-width:1.00003499;stroke-miterlimit:4;stroke-dasharray:none" />
  <polygon
   class="fil0"
   points="2228,1438 2206,1425 2207,1418 2239,1424 2221,1532 2189,1527 2190,1520 2215,1515 2220,1486 2110,1468 2100,1488 2095,1487 2105,1427 2109,1428 2113,1450 2223,1468 "
   id="polygon245"
   style="fill:#ffffff;fill-opacity:1;stroke-width:1.00003499;stroke-miterlimit:4;stroke-dasharray:none" />
  <polygon
   class="fil0"
   points="2092,1541 2194,1576 2206,1562 2211,1564 2194,1614 2189,1612 2188,1594 2085,1559 2073,1572 2069,1571 2086,1521 2090,1523 "
   id="polygon247"
   style="fill:#ffffff;fill-opacity:1;stroke-width:1.00003499;stroke-miterlimit:4;stroke-dasharray:none" />
  <path
   class="fil0"
   d="m 2064,1596 26,14 -3,6 -26,-3 c -3,4 -5,8 -8,12 -9,16 -7,28 5,35 9,5 14,4 28,-4 l 20,-11 c 11,-6 15,-8 22,-8 6,0 11,1 17,4 18,10 24,30 13,50 -2,3 -5,8 -8,13 -3,4 -5,6 -6,8 l -6,7 -2,2 -25,-13 3,-7 25,3 1,-1 c 3,-4 4,-6 5,-9 9,-17 8,-29 -3,-35 -8,-4 -13,-4 -27,4 l -22,12 c -13,7 -15,8 -22,9 -7,1 -14,-1 -20,-4 -19,-10 -24,-31 -12,-54 3,-5 8,-13 14,-19 l 8,-9 2,-2 z"
   id="path249"
   style="fill:#ffffff;fill-opacity:1;stroke-width:1.00003499;stroke-miterlimit:4;stroke-dasharray:none" />
  <path
   class="fil0"
   d="m 1995,1842 c -11,10 -28,9 -39,-2 -10,-11 -10,-29 1,-39 11,-10 29,-9 39,2 10,11 10,29 -1,39 z"
   id="path251"
   style="fill:#ffffff;fill-opacity:1;stroke-width:1.00003499;stroke-miterlimit:4;stroke-dasharray:none" />
  <path
   class="fil0"
   d="m 1540,1403 c 0,1 0,1 0,1 0,1 0,1 0,1 0,3 2,5 4,7 l 2,3 c 3,4 5,5 9,7 3,1 6,0 8,0 2,-1 3,-1 5,0 l 2,2 4,2 c 3,1 6,0 8,-2 l 4,-2 h 5 l 6,-1 h 2 c 5,-1 10,-1 11,-4 l 1,-3 -3,-3 -1,-1 -5,-2 h -1 l -3,-1 -6,-2 -5,2 -4,1 h -7 -1 l -4,-2 -6,-2 c -4,0 -6,1 -9,2 l -3,1 -2,1 c -3,0 -4,0 -6,-4 0,-1 3,-5 3,-5 0,0 7,-8 8,-10 0,0 0,0 0,0 0,0 0,0 0,0 v 0 c 0,0 0,0 0,0 0,-1 1,-1 1,-2 0,0 0,-1 -1,-1 -1,-1 -3,0 -4,0 -2,1 -12,11 -12,17 z"
   id="path253"
   style="fill:#ffffff;fill-opacity:1;stroke-width:1.00003499;stroke-miterlimit:4;stroke-dasharray:none" />
  <path
   class="fil0"
   d="m 1528,1355 h 4 v 1 c -2,2 -3,3 -3,5 0,1 1,2 2,2 3,0 4,-1 5,-3 l 1,-1 3,-2 4,-3 5,-6 c 2,-4 2,-6 1,-10 0,0 -2,-9 -2,-9 v -1 l -1,-2 -3,-7 c -2,-3 -7,-11 -10,-9 -2,1 -2,3 -2,4 v 1 c 0,0 -2,1 -2,1 -3,1 -5,-1 -9,-3 -3,-2 -6,-3 -9,-4 -7,-1 -12,-1 -19,0 -6,1 -10,3 -16,8 -3,3 -6,5 -7,9 l -3,10 v 0 c 0,1 1,2 1,3 1,0 1,1 2,1 1,2 3,4 10,8 3,2 14,4 20,4 0,0 0,0 0,0 h 2 c 0,0 0,0 0,0 0,0 0,0 1,0 0,0 0,0 0,0 0,0 1,0 1,0 2,0 3,0 4,-1 4,0 8,-1 8,-1 l 8,-2 c 3,-1 6,-2 10,-1 -1,2 -1,3 -2,5 0,0 0,0 0,0 0,-2 -2,-3 -3,-3 h -4 l -8,1 -11,3 c -2,0 -3,2 -2,4 0,2 2,3 4,2 l 11,-3 7,-1 z m -42,-14 v 0 c -2,-1 -6,-4 -7,-5 0,-1 0,-2 1,-3 0,0 0,-1 1,-1 l 4,-6 c 2,-2 3,-3 5,-5 0,0 1,0 1,-1 -1,3 -2,6 -2,9 0,5 2,10 5,13 -3,0 -5,-1 -6,-2 z m 26,-12 v 0 c -1,0 -2,-1 -2,-3 0,-1 1,-3 2,-3 1,0 3,1 3,3 0,1 -1,3 -3,3 z m 14,12 v 0 l -3,1 c 3,-3 4,-8 4,-12 0,-3 -1,-6 -2,-9 2,1 3,1 4,2 1,1 2,2 3,3 4,4 6,8 7,13 0,0 0,1 0,1 -5,-1 -9,0 -12,1 z"
   id="path255"
   style="fill:#ffffff;fill-opacity:1;stroke-width:1.00003499;stroke-miterlimit:4;stroke-dasharray:none" />
  <path
   class="fil0"
   d="m 1479,1287 c 9,-2 15,-2 25,-2 h 5 l 8,1 10,3 6,2 c 2,1 3,0 4,-2 1,-2 0,-3 -2,-4 l -6,-2 -10,-4 -9,-1 h -5 c -10,-1 -16,-1 -26,2 -2,0 -3,2 -2,4 0,2 2,3 4,2 z"
   id="path257"
   style="fill:#ffffff;fill-opacity:1;stroke-width:1.00003499;stroke-miterlimit:4;stroke-dasharray:none" />
  <path
   class="fil0"
   d="m 1595,1488 c 0,0 0,0 0,0 -3,2 -4,3 -7,4 l -2,1 c -4,1 -5,1 -11,0 l -5,-1 -8,-1 h -2 c -4,0 -5,0 -6,1 v 1 l 1,1 3,2 c 4,4 8,8 19,8 h 4 5 l 6,3 6,3 -1,-5 -2,-8 c 0,0 0,0 0,0 0,-2 1,-4 4,-6 0,0 0,0 0,0 l -2,-3 z"
   id="path259"
   style="fill:#ffffff;fill-opacity:1;stroke-width:1.00003499;stroke-miterlimit:4;stroke-dasharray:none" />
  <path
   class="fil0"
   d="m 1624,1465 -1,-2 c -1,-3 -2,-5 -1,-7 l -3,-3 c 0,0 0,0 -1,1 v 0 c 0,0 0,0 0,0 -2,1 -3,3 -3,7 0,1 0,2 0,4 -1,0 -3,0 -4,-1 l -7,-3 -6,-6 -2,-3 c -2,-2 -4,-2 -6,-2 h -2 c 0,0 -3,0 -6,1 -1,0 -1,0 -1,0 0,0 0,0 0,0 0,0 0,0 0,0 0,0 0,0 0,0 l -5,1 h -1 -2 -2 -4 l -7,3 -5,4 -2,2 -2,2 -5,4 c -3,1 -5,1 -8,0 l -4,-1 c 1,-3 0,-6 0,-9 l -1,-2 -4,1 c 0,2 0,3 0,4 0,2 0,3 -1,4 l -1,1 c -2,2 -4,3 -6,3 -1,0 -2,0 -3,-1 v 0 l -2,4 c 2,1 3,1 4,1 4,1 7,0 10,-2 2,2 4,4 7,5 5,2 8,2 13,1 h 2 l 7,-1 8,-1 4,1 6,1 6,-2 c 2,-1 3,-1 4,-1 0,0 3,1 5,1 1,0 1,0 1,0 0,0 1,0 2,0 1,0 8,1 8,1 7,1 13,0 17,-4 l 1,-1 c 2,2 4,3 6,3 4,1 7,-1 9,-3 l 2,-3 h -6 c -4,0 -6,0 -7,-2 z"
   id="path261"
   style="fill:#ffffff;fill-opacity:1;stroke-width:1.00003499;stroke-miterlimit:4;stroke-dasharray:none" />
  <path
   class="fil0"
   d="m 1393,1235 c 0,0 0,0 0,0 z"
   id="path263"
   style="fill:#ffffff;fill-opacity:1;stroke-width:1.00003499;stroke-miterlimit:4;stroke-dasharray:none" />
  <path
   class="fil0"
   d="m 1671,1312 c -6,-2 -9,-3 -15,-3 -9,0 -14,0 -22,3 -5,2 -9,4 -13,8 l -2,2 c -3,3 -6,6 -7,11 -1,4 -1,7 0,11 l 1,5 5,-8 c 0,1 0,3 0,4 v 4 l 4,-1 c 5,-2 7,-1 10,0 l 5,1 7,2 13,2 h 3 c 5,0 10,0 16,-2 l 13,-7 v -2 c 0,0 0,0 0,0 l 2,-1 c 3,-2 -1,-13 -3,-17 -5,-8 -8,-9 -15,-11 z m -34,31 v 0 l -5,-1 c -3,-1 -6,-1 -10,-1 1,-4 2,-8 4,-12 1,-1 1,-2 2,-2 l 3,-2 c 2,-1 3,-2 4,-3 -2,3 -3,7 -3,10 0,5 1,9 4,12 v 0 z m 22,-12 v 0 c -1,0 -2,-1 -2,-3 0,-1 1,-3 2,-3 1,0 3,1 3,3 0,1 -1,3 -3,3 z m 13,13 v 0 c -3,1 -5,2 -7,2 4,-4 7,-9 7,-15 0,-3 -1,-5 -1,-7 2,1 3,2 5,4 3,2 4,6 5,9 0,1 0,2 0,3 -2,1 -9,5 -9,5 z"
   id="path265"
   style="fill:#ffffff;fill-opacity:1;stroke-width:1.00003499;stroke-miterlimit:4;stroke-dasharray:none" />
  <path
   class="fil0"
   d="m 1649,1356 -5,-2 -10,-3 h -13 -3 c -2,0 -3,2 -3,3 0,2 2,3 3,3 h 3 11 l 8,2 5,2 c 2,1 3,0 4,-2 1,-2 0,-3 -2,-4 z"
   id="path267"
   style="fill:#ffffff;fill-opacity:1;stroke-width:1.00003499;stroke-miterlimit:4;stroke-dasharray:none" />
  <path
   class="fil0"
   d="m 1888,1049 c 0,0 -1,0 -1,0 l -5,-1 c -5,-1 -10,-1 -15,-1 -9,0 -19,3 -28,7 0,-1 1,-2 1,-2 2,-11 0,-23 -7,-35 -13,-22 -41,-44 -81,-65 7,-5 12,-14 12,-23 0,-1 0,-1 0,-2 -1,-8 -4,-15 -10,-20 -1,-1 -2,-2 -3,-3 0,0 0,0 -1,0 0,0 0,0 0,0 0,0 -1,0 -1,0 -3,-2 -6,-3 -10,-4 0,0 -1,0 -1,0 0,0 0,0 0,0 0,0 -1,0 -1,0 -42,-14 -107,-16 -179,-4 -65,-9 -120,-6 -158,7 0,0 0,0 -1,0 0,0 0,0 0,0 0,0 -1,0 -1,0 -4,1 -7,2 -10,4 0,0 -1,0 -1,0 0,0 0,0 0,0 0,0 0,0 -1,0 -1,1 -2,2 -3,3 -5,5 -9,12 -10,20 0,1 0,2 0,3 0,8 2,15 6,19 -47,25 -78,54 -83,81 -1,5 -1,11 0,16 0,1 1,2 1,3 -6,-2 -12,-3 -18,-3 -5,0 -10,0 -14,1 1,0 -5,1 -5,1 0,0 -1,0 -1,0 -34,10 -63,38 -86,79 -1,1 -1,2 -2,3 -32,60 -49,144 -44,237 4,75 22,145 52,203 6,12 11,20 18,30 0,0 32,50 32,50 10,15 29,37 41,46 0,0 -1,-1 -1,-1 l 8,7 5,4 c 0,0 1,1 1,1 l 11,6 c 11,6 18,8 30,7 2,0 4,0 5,0 13,-2 25,-11 32,-24 0,0 1,-1 1,-1 1,-2 2,-3 2,-5 15,14 31,27 49,40 -3,5 -4,10 -4,15 0,4 1,8 3,12 -3,0 -7,0 -10,0 v 0 c -3,0 -6,0 -9,1 -18,4 -31,18 -31,35 0,10 4,19 11,26 5,5 11,8 18,10 1,0 1,1 1,1 6,2 12,3 18,4 45,8 102,0 162,-21 0,0 1,0 1,1 68,23 129,29 174,15 0,0 1,0 1,0 0,0 1,0 1,-1 1,-1 3,-1 4,-2 1,0 3,-1 4,-2 12,-6 21,-18 21,-33 0,-16 -11,-29 -27,-34 -4,-1 -8,-2 -12,-2 -3,0 -7,0 -10,0 2,-4 3,-8 3,-12 0,-4 -2,-9 -4,-13 17,-13 33,-26 48,-40 0,2 1,4 1,6 l 1,4 c 0,1 0,1 1,2 6,11 17,19 29,22 3,1 6,1 9,1 13,2 21,-1 30,-6 0,0 11,-7 11,-7 0,0 1,-1 1,-1 l 5,-4 7,-7 c 0,0 -1,1 -1,1 11,-9 31,-31 41,-46 0,0 33,-50 33,-50 7,-10 14,-21 20,-32 32,-59 50,-130 54,-209 5,-92 -13,-177 -44,-236 v 0 c 0,-2 -1,-4 -3,-5 -22,-40 -51,-68 -85,-77 z m -134,-75 v 0 c 3,0 6,1 9,3 0,0 1,0 1,0 38,22 60,46 60,66 0,2 0,3 -1,5 -1,6 -5,12 -12,18 -10,4 -19,5 -28,3 -1,0 -2,0 -2,0 h -8 -16 c -13,1 -44,7 -54,25 0,0 0,0 0,0 0,0 -1,1 -1,1 -1,2 -2,4 -3,6 -8,-7 -19,-13 -31,-13 h -4 -7 c -3,-5 -5,-13 -5,-16 0,-6 3,-12 6,-15 3,-3 7,-4 12,-3 3,0 7,3 10,4 l 2,1 c 3,2 7,1 9,-1 2,-2 3,-6 2,-9 -2,-4 -4,-10 -4,-11 0,-6 3,-11 7,-15 4,-4 9,-5 14,-5 3,0 7,1 9,3 3,2 7,2 10,-1 3,-3 3,-7 1,-10 -3,-5 -5,-8 -4,-13 0,-6 3,-12 8,-16 4,-4 10,-6 16,-5 z m -24,366 v 0 c 0,0 -9,-12 -9,-12 -4,-5 -8,-9 -8,-20 0,-3 0,-6 1,-9 3,0 5,0 8,0 2,7 5,16 15,22 1,3 2,6 2,6 1,2 1,4 2,6 0,1 0,1 0,2 0,2 1,3 1,5 0,1 0,1 0,2 0,2 0,5 0,7 0,0 0,0 0,1 0,3 0,5 -1,8 -1,7 -4,13 -7,17 -1,1 -2,2 -3,3 -1,1 -3,2 -4,2 -3,0 -5,0 -6,-1 0,0 -1,-1 -1,-2 2,-1 4,-2 7,-4 5,-4 6,-10 6,-16 0,-8 -3,-15 -4,-17 z m -19,49 v 0 c 1,1 3,2 5,4 -3,23 -9,51 -24,76 -2,3 -4,6 -6,9 -1,1 -1,1 -2,2 -6,9 -12,15 -22,23 -8,7 -13,11 -22,17 l -12,8 c -15,10 -25,17 -43,18 l 6,-1 7,-2 c 2,0 3,-2 3,-4 0,-2 -2,-3 -3,-2 l -9,2 -6,1 -5,-1 -10,-2 c -2,0 -3,1 -3,2 0,2 1,3 3,4 l 8,2 5,1 c 0,0 0,0 -1,0 -10,0 -17,-2 -23,-4 0,0 0,0 0,0 -6,-2 -12,-5 -18,-9 l -17,-9 -12,-5 c -10,-4 -16,-7 -29,-18 -14,-11 -19,-21 -27,-38 -15,-29 -19,-48 -16,-77 0,0 1,-1 1,-1 8,-9 7,-22 7,-24 0,-3 -3,-5 -5,-6 -2,-1 -5,0 -7,1 -1,-1 -1,-2 -1,-4 0,-3 1,-7 2,-10 0,0 6,-9 6,-9 7,-8 15,-17 10,-44 0,0 -1,-2 -2,-5 3,-9 2,-19 2,-21 0,-3 -2,-5 -4,-6 -2,-1 -5,-1 -7,0 -1,0 -1,0 -2,1 v 0 c 1,0 1,-1 1,-1 3,-1 8,-3 12,-7 v 0 c 8,4 21,4 30,-4 14,-13 11,-28 8,-34 -1,-1 -1,-2 -2,-3 1,0 2,0 3,0 7,0 18,0 29,-7 6,5 13,8 20,8 14,0 25,-7 32,-18 2,-1 3,-2 5,-3 6,14 19,23 34,23 9,0 20,-5 27,-13 7,8 15,11 23,13 0,0 -1,0 -1,1 -3,6 -6,21 8,34 9,8 22,8 30,4 v 0 c 4,5 9,6 12,7 0,0 1,0 1,1 v 0 c -1,0 -1,0 -2,-1 -2,-1 -5,-1 -7,0 -2,1 -4,3 -4,6 -1,3 -2,18 5,27 l -1,2 c -1,5 -1,10 -1,14 0,17 6,24 12,31 l 6,9 c 1,3 2,7 2,10 0,2 0,3 -1,4 -2,-1 -5,-2 -8,-1 -3,1 -5,3 -5,6 0,2 -2,15 7,24 z m -53,248 v 0 c -6,6 -12,12 -19,16 -39,24 -89,49 -164,61 -4,-1 -6,-4 -6,-8 0,-4 3,-8 6,-8 0,0 0,0 0,0 1,0 1,0 2,-1 2,-1 4,-1 4,-1 39,-14 93,-35 128,-56 11,-7 21,-16 31,-24 l 1,-1 c 3,10 10,17 19,21 l -2,2 z m 11,11 v 0 l 6,-6 c 2,11 9,21 19,25 l -22,14 -7,4 c -74,46 -166,70 -232,74 -4,-3 -6,-7 -6,-12 0,-4 2,-7 4,-10 1,0 1,-1 2,-2 2,-2 5,-3 8,-3 98,-9 158,-39 204,-68 9,-5 15,-12 22,-18 z m -169,17 v 0 c 0,0 3,2 7,4 -10,4 -20,7 -31,11 0,0 0,0 -1,0 -7,-5 -15,-10 -22,-15 10,-4 17,-14 19,-25 l 6,6 c 6,6 13,13 22,18 z m -13,-32 v 0 c 9,-3 16,-11 19,-21 l 1,1 c 10,8 19,17 31,24 7,4 12,7 18,11 -9,4 -20,9 -31,13 l -17,-10 c -7,-4 -13,-10 -19,-16 z m 113,-8 v 0 c -7,5 -16,9 -26,14 -10,-5 -18,-9 -28,-15 -5,-3 -10,-7 -14,-10 0,0 1,0 1,0 0,0 0,0 0,0 1,0 1,0 2,0 21,-1 38,-19 38,-41 0,-4 -1,-9 -3,-13 3,0 6,1 10,1 4,0 7,0 10,0 -1,4 -2,8 -2,12 0,20 13,36 31,40 -6,5 -12,10 -18,14 z m -178,-258 v 0 c 2,2 5,3 7,4 0,1 0,1 -1,2 -1,1 -3,2 -6,1 -2,0 -3,-1 -5,-3 -4,-4 -7,-11 -9,-19 -1,-3 -1,-6 -1,-9 0,-8 2,-15 4,-22 l 2,-6 c 6,-6 9,-13 10,-18 0,0 0,0 0,-1 0,0 1,0 1,0 0,0 1,0 1,0 1,0 1,0 2,0 0,0 1,0 1,0 1,0 1,0 2,0 0,0 1,0 1,0 1,0 1,0 1,0 1,0 2,0 2,-1 0,0 0,0 0,0 0,2 1,5 1,7 0,11 -3,15 -8,20 l -8,12 c -1,2 -4,9 -4,17 0,5 1,11 6,16 z m 40,-336 v 0 c -1,-10 -5,-19 -13,-26 -7,-6 -16,-9 -26,-9 0,-1 1,-2 1,-4 0,-1 0,-1 0,-2 -1,-11 -6,-20 -13,-27 -1,-1 -2,-2 -3,-3 -1,-1 -3,-2 -4,-2 1,-1 2,-1 3,-2 7,-3 15,-7 24,-10 0,0 0,0 0,0 l 6,-1 c 3,0 6,0 9,2 2,1 4,2 6,4 5,4 7,10 8,16 0,5 -1,11 -4,15 -2,3 -2,6 0,9 2,3 5,4 9,3 l 8,-2 c 3,0 6,1 9,3 3,3 5,7 5,12 0,2 -2,5 -3,7 l -1,2 c -2,3 -1,6 1,9 2,3 6,4 9,3 l 6,-2 c 3,0 7,1 9,3 3,2 5,6 5,10 0,3 -1,6 -2,9 -3,2 -5,3 -8,5 -2,-4 -4,-8 -7,-11 -7,-7 -18,-10 -28,-9 -1,0 -1,0 -2,1 0,0 0,-1 0,-1 0,0 0,-1 0,-1 z m 68,-64 v 0 c 29,-7 54,-12 77,-14 36,-3 72,-3 103,0 0,0 1,0 1,1 4,1 7,5 7,10 0,6 -4,11 -10,12 h -2 c 0,0 -17,-2 -17,-2 -25,-1 -49,0 -70,3 -27,3 -54,9 -79,16 0,-1 0,-1 0,-2 0,-10 -4,-19 -11,-24 z m 169,24 v 0 c 3,0 6,1 6,1 0,0 5,0 5,0 2,0 3,0 5,-1 0,1 0,2 0,2 0,1 0,1 0,2 0,1 1,2 1,4 -5,0 -10,1 -15,3 0,-1 0,-3 0,-4 0,-2 -1,-4 -1,-6 z m -22,45 v 0 c -1,0 -1,0 -2,-1 -9,-1 -18,1 -24,7 -4,4 -8,9 -10,15 -3,-2 -6,-4 -9,-6 -2,-3 -3,-6 -3,-10 0,-4 2,-7 5,-10 3,-2 6,-3 9,-3 l 6,2 c 3,1 7,0 9,-3 1,-2 2,-3 2,-5 4,0 8,0 13,0 0,0 6,0 6,0 0,0 0,0 1,0 -2,4 -3,8 -3,12 0,0 0,1 0,1 0,0 0,1 0,1 z m 6,194 v 0 c 6,-4 9,-10 9,-16 0,-2 0,-4 -1,-6 3,-2 5,-3 8,-5 1,2 1,4 2,6 0,0 0,0 0,1 0,1 0,2 0,3 0,1 0,3 0,4 l -1,7 c 0,0 0,0 0,0 -1,4 -3,7 -7,9 l -6,4 c -2,1 -8,2 -12,-1 -2,-2 -3,-3 -4,-5 4,1 7,1 11,-1 z m -11,-16 v 0 c 1,0 2,0 3,-1 0,0 0,1 0,1 0,0 0,1 0,1 -1,0 -2,-1 -3,-1 z m 18,-76 v 0 h -1 c -2,-1 -5,-2 -7,-1 -2,1 -3,2 -4,4 l -1,8 c 0,2 1,3 1,5 0,3 -1,4 -4,5 -3,-3 -5,-19 -6,-27 l -1,-9 c 0,-2 -1,-3 -1,-5 0,0 0,0 0,0 -1,-5 -4,-10 -7,-16 3,0 6,0 6,0 h 4 c 16,0 29,15 33,29 l 1,5 c 0,0 0,0 0,0 v 3 c 0,0 0,7 0,9 -4,-4 -8,-8 -15,-10 z m -25,33 v 0 c 4,3 8,3 13,2 6,-2 13,-5 15,-14 1,2 3,6 3,11 0,3 0,7 -1,11 l -2,4 c 0,0 0,0 0,0 -3,6 -10,9 -14,10 l -8,2 c -11,1 -25,-3 -32,-22 0,0 0,1 0,1 0,0 -1,-2 -1,-4 v -1 c 0,0 0,0 0,0 l -2,-12 c 0,-2 -1,-4 -1,-6 -3,-15 -8,-24 -18,-31 0,0 -4,-2 -6,-3 0,0 0,0 0,0 l -2,-1 c -6,-3 -10,-5 -12,-12 0,-1 -1,-3 -1,-4 0,-1 0,-1 0,-1 0,-1 0,-2 0,-2 0,0 0,0 0,-1 0,-2 0,-3 1,-5 1,-1 3,-4 3,-6 0,0 1,-1 1,-1 16,-9 31,3 38,12 8,9 12,19 13,25 l 1,8 c 2,17 4,32 13,39 z m -208,52 v 0 c 1,2 3,4 5,5 4,2 7,2 11,1 -1,2 -2,3 -4,5 -4,3 -9,3 -12,1 0,0 -1,-1 -2,-1 0,-3 1,-6 1,-9 0,-1 0,-2 0,-3 z m 13,-9 v 0 c 0,0 0,-1 0,-1 0,-1 0,-2 0,-2 1,-2 1,-4 1,-5 3,1 6,2 8,3 -1,0 -2,1 -3,2 -2,2 -5,3 -6,4 z m 0,-30 v 0 c -2,-2 -3,-4 -3,-7 -1,-4 -1,-8 -1,-11 0,-5 1,-8 3,-11 2,8 9,12 15,14 5,1 9,0 13,-2 9,-6 11,-22 13,-39 l 1,-4 c 0,-1 0,-4 0,-4 1,-5 3,-11 7,-17 2,-3 21,-33 44,-20 4,2 5,7 5,14 l -1,5 v 0 c 0,0 0,0 0,0 -1,4 -3,6 -4,8 0,0 -7,4 -7,4 -10,5 -23,11 -27,39 0,0 0,0 0,0 v 2 c 0,0 0,1 0,1 -1,5 -2,10 -3,15 -2,7 -5,12 -9,16 -7,7 -17,8 -23,8 -5,0 -15,-3 -20,-10 z m 87,-46 v 0 c 0,2 -1,3 -1,5 -3,-1 -6,-2 -10,-2 2,-5 6,-8 10,-10 z m -25,51 v 0 c 2,2 5,4 8,5 0,0 -1,0 -1,0 -2,0 -5,-2 -8,-4 0,-1 1,-1 1,-2 z m 7,-17 v 0 c 1,-4 2,-9 3,-14 1,-1 2,-2 2,-2 6,0 8,2 9,2 v -1 c 1,2 3,5 6,5 3,1 5,0 7,-2 1,-1 2,-3 3,-5 1,1 2,2 3,2 0,2 0,3 0,4 v 1 c 0,1 0,3 0,3 -2,5 -6,9 -10,12 -3,1 -6,2 -9,2 -5,0 -11,-4 -13,-9 z m 32,-43 v 0 -1 c 0,-2 1,-6 1,-7 2,-2 4,-4 5,-7 0,1 0,2 0,3 0,0 0,1 0,1 0,1 0,2 0,3 0,0 0,1 0,1 0,3 1,5 2,8 0,0 0,1 0,1 0,1 1,2 1,3 0,0 0,1 0,1 0,1 1,2 2,3 2,2 4,3 7,3 3,0 5,-2 6,-4 2,-3 2,-4 3,-4 0,0 2,0 6,1 1,0 3,2 3,2 0,0 1,1 2,2 0,0 0,0 0,0 0,0 0,1 0,2 0,0 0,1 0,1 0,1 0,2 0,3 0,2 -1,9 -12,8 -5,0 -10,-1 -14,-3 -5,-3 -9,-7 -11,-12 l -1,-7 z m 16,37 v 0 c 1,0 2,0 3,1 1,3 2,5 4,8 0,0 0,0 0,0 1,1 2,2 3,3 0,0 1,1 1,1 1,1 3,2 4,2 3,1 7,0 9,-2 2,-2 4,-3 5,-4 1,0 1,0 1,0 0,0 1,0 1,0 1,0 2,0 2,0 1,0 2,1 3,2 l 1,3 1,6 c 0,5 -9,11 -16,11 -13,0 -22,-10 -22,-26 0,0 0,-2 0,-4 z m 91,-161 v 0 c -1,0 -5,0 -5,0 -24,0 -49,3 -73,8 -13,3 -25,6 -36,9 -1,0 -3,0 -4,1 0,-8 -4,-14 -9,-19 22,-6 47,-10 71,-14 17,-2 35,-3 55,-3 1,1 2,2 3,2 3,1 4,3 4,6 0,0 0,1 0,1 0,2 -1,5 -7,7 z m -60,22 v 0 c -2,4 -4,8 -4,13 0,0 0,1 0,1 -5,-2 -11,-5 -16,-7 l -1,-3 c 2,-1 5,-1 7,-2 5,-1 9,-2 14,-3 z m -63,16 v 0 c 3,-1 7,-2 10,-3 7,2 14,4 21,7 2,2 5,4 8,3 11,4 21,9 30,14 0,0 0,0 1,0 6,4 12,7 16,11 0,1 0,2 1,3 -15,-11 -31,-14 -46,-5 0,0 -1,0 -1,0 -5,2 -10,4 -14,8 -2,-5 -5,-9 -10,-11 -22,-13 -44,-2 -59,17 -3,-1 -7,-2 -11,-2 3,-5 4,-10 5,-14 4,-3 8,-6 12,-8 2,0 3,-1 4,-2 0,0 0,0 0,0 8,-4 17,-8 27,-12 3,1 7,0 9,-3 z m -55,57 v 0 c -2,5 -4,9 -5,14 0,1 -1,3 -1,4 0,0 0,3 0,3 0,1 -1,5 -1,5 -1,8 -3,24 -6,27 -3,-1 -4,-2 -4,-5 0,-1 0,-3 1,-5 l -1,-8 c 0,-2 -2,-3 -4,-4 -2,-1 -5,0 -7,1 h -1 c -2,1 -4,2 -6,3 -1,0 -1,1 -2,1 -1,1 -2,1 -3,2 -1,0 -1,1 -1,1 -1,1 -2,2 -3,3 0,0 -1,1 -1,1 -1,2 -2,3 -3,5 0,0 0,1 0,1 -1,1 -1,3 -1,5 0,1 0,1 0,2 0,1 0,3 -1,4 0,1 0,2 0,2 0,0 0,1 0,1 0,1 0,3 0,4 0,1 0,2 0,2 0,3 1,5 1,8 0,0 0,1 0,1 -3,1 -5,3 -8,6 0,0 0,0 0,0 -1,1 -2,3 -3,4 0,0 0,1 -1,1 -1,2 -2,4 -2,6 l -3,10 c -4,16 -7,23 -14,23 -4,0 -7,-4 -9,-7 l -1,-2 -4,-8 c 0,-1 -1,-2 -1,-3 0,0 0,0 0,-1 0,-1 0,-1 -1,-2 0,0 0,0 0,-1 0,-1 0,-1 0,-2 0,0 0,0 0,0 0,-1 0,-1 0,-2 0,0 0,0 0,0 0,-1 0,-1 0,-2 0,0 0,0 0,-1 0,0 0,-1 0,-1 0,-1 1,-2 0,-3 l 1,-3 c 0,-1 1,-3 3,-4 v 0 c 0,0 1,-1 1,-1 4,7 10,7 14,6 15,-3 16,-26 17,-45 0,-1 0,-3 0,-4 v -9 l 1,-5 c 4,-16 19,-30 35,-33 0,0 0,0 1,0 2,1 4,0 6,0 6,0 12,0 17,1 z m -43,96 v 0 c 0,1 0,2 0,4 0,-1 0,-2 -1,-3 1,-1 1,-1 1,-1 z m -32,-51 v 0 c 0,1 0,2 0,2 0,7 -1,24 -3,31 0,-1 -1,-2 -1,-2 -1,-3 -3,-4 -6,-4 -1,0 -2,0 -2,0 0,-1 0,-2 1,-3 l 2,-5 c 4,-10 7,-15 10,-19 0,0 0,0 0,0 z m -5,-17 v 0 c -10,6 -15,17 -20,30 l -2,5 c -2,6 -3,12 -3,17 v 2 c 0,1 -1,1 -1,2 -8,-8 -16,-18 -20,-25 -8,-15 -9,-20 -11,-32 l -1,-5 c -1,-7 -3,-12 -5,-18 -3,-9 -8,-17 -13,-24 5,0 9,0 13,-1 1,0 9,0 9,0 h 14 c 21,2 38,9 42,17 0,1 1,1 1,2 1,1 1,2 2,6 0,0 0,3 0,4 0,2 -3,13 -5,20 z m -29,89 v 0 c -2,-1 -5,-3 -5,-4 -1,-1 0,-2 -1,-3 2,0 3,0 4,0 0,2 1,4 2,7 z m -5,26 v 0 c 0,-3 0,-7 -1,-11 2,1 4,1 6,1 1,0 2,0 3,0 h 1 c 0,0 0,0 0,0 -2,5 -3,10 -5,15 0,1 -1,1 -1,2 -1,2 -2,4 -2,5 -1,2 -2,5 -4,6 0,0 0,0 0,0 -4,6 -9,10 -15,11 0,0 -1,0 -1,0 -2,0 -5,0 -7,-2 0,0 0,-2 -1,-3 2,1 3,1 5,1 7,0 12,-3 16,-8 4,-5 6,-11 6,-20 z m -2,41 v 0 c 0,2 1,4 1,5 0,1 0,1 -1,2 0,0 -2,-1 -2,-1 -1,-1 -3,-1 -5,-1 0,0 0,-1 0,-1 2,-1 5,-2 7,-4 z m -2,71 v 0 c 5,-4 8,-8 9,-11 0,3 0,7 1,11 0,0 0,0 0,0 1,5 4,15 9,22 -1,1 -1,2 -1,2 -1,1 -3,3 -5,3 -2,0 -3,-1 -4,-2 0,0 -1,-2 -2,-7 0,-4 -4,-8 -8,-8 0,0 -11,-2 -13,-9 1,1 3,2 5,2 l 9,-2 z m 6,-32 v 0 c 2,0 4,0 6,0 -1,3 -2,7 -2,10 -1,-4 -2,-7 -4,-10 z m 14,-19 v 0 c 0,0 -1,1 -1,1 -4,2 -10,3 -13,2 2,0 4,-1 5,-2 6,-4 8,-10 8,-16 0,-5 -1,-9 -2,-13 0,0 -1,-3 -1,-6 v -1 c 5,-8 8,-17 11,-26 5,3 9,4 12,4 2,0 3,0 5,0 -2,2 -4,5 -4,10 0,1 0,2 0,3 1,8 5,11 8,13 2,1 4,1 6,1 0,2 -1,4 -1,5 l -1,1 c -2,2 -9,1 -13,1 h -4 c -2,0 -4,1 -6,2 -2,1 -2,3 -2,6 -1,8 -3,14 -7,17 z m 310,-115 v 0 c 0,0 0,1 1,1 1,2 3,4 5,5 0,0 1,0 1,0 1,1 2,1 4,1 1,0 3,0 4,0 3,0 5,-1 7,-3 1,-1 2,-2 3,-3 0,0 0,0 0,0 l 3,5 c 0,0 1,4 1,4 0,0 0,1 0,1 1,2 1,3 1,5 0,0 0,1 0,1 0,1 0,3 0,4 0,0 0,0 0,0 0,1 0,2 0,4 0,1 0,2 0,2 0,0 0,0 0,0 0,0 0,0 0,0 l -2,5 c 0,0 -3,4 -3,4 v 0 c -2,2 -4,3 -5,4 -1,0 -2,1 -3,1 -1,0 -2,0 -3,0 -3,0 -6,-1 -9,-8 0,0 0,0 0,-1 0,-3 1,-7 1,-7 0,-3 0,-6 -1,-9 0,-1 0,-1 0,-2 0,-3 -1,-5 -2,-7 0,0 0,0 0,0 -1,-5 -3,-8 -6,-11 0,-1 1,-2 1,-2 1,1 1,3 2,4 z m 9,-43 v 0 c 4,4 6,10 10,19 0,0 2,4 2,5 0,0 0,0 -1,0 -3,0 -5,1 -6,4 l -1,4 c 0,0 0,1 -1,2 -3,-7 -3,-24 -3,-31 0,0 0,-1 0,-2 z m 16,142 v 0 c 0,-2 -1,-4 -2,-6 -2,-1 -3,-2 -6,-2 h -4 c -3,0 -9,1 -12,0 h -1 c -1,-1 -1,-3 -2,-6 2,0 4,0 6,-1 3,-2 7,-5 8,-13 0,-1 0,-2 0,-3 0,-5 -2,-8 -4,-10 2,0 3,0 5,0 4,0 9,-1 13,-3 3,9 6,17 11,25 l -1,3 c 0,1 -1,3 -1,3 v 1 c -1,4 -2,9 -2,13 0,6 2,11 8,16 1,1 3,1 5,2 -2,1 -7,1 -11,-1 -1,0 -1,-1 -1,-1 -6,-3 -8,-8 -9,-18 z m 21,36 v 0 c -1,1 -1,2 -2,3 0,-1 -1,-2 -1,-3 0,0 0,0 0,0 1,0 2,0 2,0 z m 0,35 v 0 c 0,-3 1,-5 1,-8 1,1 3,3 5,5 0,0 9,2 9,2 2,0 3,-1 5,-2 -2,8 -13,9 -13,10 -4,0 -8,4 -8,8 0,5 -1,7 -2,7 -1,1 -2,2 -4,2 -1,0 -2,0 -2,-1 4,-6 8,-14 10,-23 z m 11,-69 v 0 c -2,0 -3,0 -5,1 0,0 -2,1 -2,1 0,0 -1,-1 -1,-2 0,-1 0,-3 1,-5 2,2 4,3 7,4 0,0 0,1 0,1 z m -5,-25 v 0 c 0,0 0,0 0,0 -1,-2 -3,-4 -4,-6 -1,-2 -2,-3 -2,-5 0,-1 -1,-1 -1,-2 -2,-5 -4,-10 -5,-15 h 1 c 1,0 2,0 3,0 2,0 4,-1 6,-1 -1,4 -1,8 -1,11 0,9 2,15 6,20 4,5 9,7 16,8 2,0 4,0 5,-1 0,1 0,2 -1,3 -2,2 -5,2 -7,2 0,0 -1,0 -1,0 -6,-1 -10,-4 -15,-11 z m -5,-52 v 0 c 1,0 2,0 4,0 0,1 -1,2 -1,3 v 0 c 0,0 0,0 0,0 -1,1 -1,2 -2,3 0,-1 0,-2 0,-3 0,0 0,-1 0,-1 0,0 0,0 0,0 z m -6,-24 v 0 c 0,-1 -1,-2 -1,-2 v -4 c 0,-5 0,-11 -3,-17 l -2,-5 c -6,-16 -12,-28 -27,-33 0,0 0,-1 0,-1 -1,-5 -3,-12 -3,-13 0,-2 0,-4 0,-4 0,-4 0,-5 2,-6 0,-1 1,-1 1,-2 3,-8 21,-15 42,-17 0,0 14,0 14,0 0,0 8,0 9,0 7,1 14,2 22,0 -4,6 -7,13 -10,20 -3,7 -4,12 -5,18 0,0 -1,5 -1,5 -2,12 -3,18 -11,32 -4,7 -16,21 -25,30 z m -18,-228 v 0 c 1,0 2,1 2,1 -1,0 -1,1 -2,1 0,-1 0,-1 0,-2 z m -207,-43 v 0 c 11,-2 22,-4 32,-6 0,0 0,0 0,0 2,0 3,0 4,-1 72,-11 138,-9 176,7 4,2 7,5 7,10 0,0 0,1 0,1 0,7 -5,13 -12,13 0,0 -2,0 -2,0 0,0 -7,-1 -7,-1 -18,-3 -38,-4 -59,-5 -20,0 -41,0 -62,2 -24,2 -52,7 -83,15 0,-1 0,-1 1,-2 0,-2 0,-3 0,-5 0,-6 -2,-12 -5,-17 -1,-2 -3,-4 -4,-6 -1,-1 -2,-2 -3,-3 5,-1 10,-2 16,-4 z m -29,55 v 0 c 1,3 5,5 8,5 h 8 c 9,1 12,10 11,18 0,2 -2,4 -5,7 l -2,2 c -2,2 -2,6 -1,9 1,3 5,5 8,4 l 6,-1 c 7,1 11,6 10,14 0,0 0,1 -1,2 -6,2 -11,4 -17,7 0,0 0,0 0,-1 -1,-8 -4,-15 -10,-21 -5,-4 -10,-6 -16,-7 0,-1 1,-2 1,-3 0,0 0,-1 0,-1 -1,-9 -5,-18 -11,-23 -5,-4 -11,-6 -17,-7 1,-3 1,-6 1,-9 0,-1 0,-2 0,-3 -1,-9 -4,-18 -11,-24 -1,-1 -1,-2 -2,-3 -1,-1 -2,-2 -3,-2 9,-3 19,-6 29,-9 0,0 0,0 0,0 6,0 11,2 14,5 1,1 1,1 2,2 4,4 5,9 4,15 0,4 -2,7 -4,10 -1,1 -2,2 -3,4 0,0 0,1 -1,1 -2,2 -3,6 -2,9 z m -107,-42 v 0 c 0,-5 3,-8 7,-10 26,-11 62,-15 106,-14 -29,7 -56,16 -80,26 -1,0 -1,0 -1,0 0,0 0,0 1,0 -9,4 -18,8 -27,12 -5,-2 -6,-8 -6,-12 0,-1 0,-1 0,-2 z m -59,75 v 0 c 10,-10 23,-20 40,-30 1,0 2,0 2,-1 3,-2 6,-3 9,-3 1,0 2,0 4,0 5,0 9,2 12,5 5,4 8,10 8,16 0,5 -1,8 -4,13 -2,3 -2,7 1,10 3,3 7,3 10,1 3,-2 6,-3 9,-3 5,0 10,1 14,5 4,4 7,9 7,15 0,2 -2,7 -4,11 -1,3 -1,7 2,9 2,2 6,3 9,1 l 2,-1 c 3,-1 7,-4 10,-4 6,-1 12,1 16,5 3,3 5,8 5,13 0,3 0,11 -9,19 -1,0 -2,0 -3,0 -13,2 -26,9 -35,19 v -1 c 0,-4 -1,-9 -4,-14 0,0 0,-1 -1,-1 0,0 0,0 0,0 -10,-19 -40,-24 -54,-25 h -16 -8 c -1,0 -2,0 -2,0 -9,2 -18,1 -28,-3 -7,-5 -11,-11 -12,-18 0,-2 -1,-3 -1,-5 0,-11 6,-23 19,-35 z m -155,157 v 0 c 3,8 8,14 14,19 7,6 16,9 26,9 4,0 8,-1 12,-2 5,16 18,26 36,26 9,0 17,-3 24,-8 6,17 21,28 38,28 14,0 27,-7 35,-19 2,-4 1,-9 -2,-11 -4,-2 -9,-1 -11,2 -5,8 -13,12 -22,12 -14,0 -25,-13 -25,-29 0,-4 -2,-7 -6,-8 -3,-1 -7,0 -9,3 -5,8 -13,12 -22,12 -13,0 -21,-8 -23,-21 0,-3 -2,-5 -4,-6 -2,-1 -5,-1 -8,0 -4,2 -9,4 -13,4 -8,0 -15,-3 -19,-8 -5,-5 -8,-13 -9,-22 0,0 0,-7 0,-8 20,-36 46,-61 75,-70 0,0 1,0 1,0 1,0 4,-1 4,-1 29,-6 59,13 71,46 2,6 4,10 5,15 0,0 1,4 1,4 2,13 3,21 13,38 3,6 9,13 15,20 -1,1 -2,2 -3,3 -1,1 -5,8 -5,13 0,5 1,11 4,16 -1,3 -2,7 -2,10 0,2 0,3 0,5 1,4 1,7 1,9 0,7 -1,9 -2,10 0,0 -1,1 -4,2 -1,0 -2,-2 -3,-3 -1,-2 -4,-3 -7,-4 -3,0 -5,1 -7,3 -3,0 -6,1 -8,4 -5,9 -14,15 -24,15 -15,0 -28,-13 -28,-29 0,-4 -3,-7 -7,-8 -4,-1 -8,2 -9,6 -3,12 -14,19 -28,19 -13,0 -24,-9 -27,-22 -1,-3 -2,-5 -5,-6 -2,-1 -5,-1 -7,1 -5,3 -8,4 -13,4 -5,0 -12,-1 -18,-7 -4,-4 -8,-11 -10,-22 0,0 0,0 0,0 4,-16 10,-31 16,-45 z m -22,72 v 0 c 4,6 8,10 12,13 7,5 15,7 23,7 5,0 9,-1 14,-3 7,15 22,25 39,25 13,0 24,-5 32,-14 7,15 22,25 39,25 11,0 21,-4 28,-11 1,4 3,7 5,9 3,3 8,5 13,6 v 5 l 1,9 c 1,11 6,19 10,25 3,4 4,6 4,8 0,1 -1,2 -2,3 -1,-1 -2,-3 -3,-4 l -5,-5 c -2,-2 -4,-1 -7,-1 -3,1 -4,4 -5,7 l -2,5 -2,9 c 0,1 0,1 0,2 0,8 3,14 9,19 4,4 9,6 14,7 1,4 2,9 6,12 4,4 10,7 16,7 4,0 11,-2 17,-8 0,0 1,-1 1,-2 2,1 4,2 7,2 1,0 1,0 2,0 -1,29 4,50 18,80 2,3 3,6 5,9 -2,1 -5,2 -8,2 -10,-3 -15,-7 -23,-19 0,0 0,-1 0,-1 l -7,-10 c -11,-25 -34,-42 -62,-46 -6,-32 -10,-74 -8,-103 0,-1 1,-2 1,-3 1,-4 -2,-9 -6,-9 -4,-1 -9,2 -9,6 -2,11 -11,18 -22,18 -9,0 -16,-5 -20,-13 -2,-3 -5,-5 -9,-5 -4,1 -6,4 -6,8 0,14 -11,25 -26,25 -11,0 -20,-12 -23,-23 -1,-4 -4,-6 -8,-6 -4,0 -7,3 -8,6 -3,13 -13,22 -25,22 -8,0 -16,-5 -21,-13 -4,-6 -6,-13 -7,-22 0,0 0,0 0,0 2,-21 4,-40 8,-59 z m 219,299 v 0 0 c -1,12 -10,22 -22,22 -2,0 -5,-1 -7,-1 -1,-1 -2,-2 -2,-2 -2,-2 -5,-3 -8,-2 -3,1 -5,3 -5,6 -1,11 -9,17 -21,17 -7,0 -12,-2 -16,-7 0,0 -1,0 -1,-1 -20,-44 -24,-86 -5,-118 3,-5 6,-10 9,-15 2,-1 3,-2 4,-4 3,-3 6,-5 10,-7 8,-3 14,-3 23,-3 27,0 51,15 61,38 0,1 1,1 1,2 l 7,10 c 2,4 5,8 7,11 1,3 3,14 3,18 0,13 -10,23 -22,23 l -4,-1 c -1,0 -4,-1 -6,0 h -1 c -2,1 -4,3 -5,5 0,1 0,2 0,3 0,2 0,3 1,4 z m -113,-8 v 0 c -1,-3 -6,-14 -6,-14 l -10,-22 c 0,0 -4,-13 -4,-13 0,0 -10,-27 -10,-27 -11,-38 -14,-78 -15,-113 6,5 13,9 21,9 11,0 20,-4 28,-10 3,28 8,59 16,91 -4,5 -7,11 -10,17 -14,24 -17,52 -11,83 z m 20,-200 v 0 c 6,3 12,5 18,5 7,0 14,-2 20,-6 1,26 4,56 8,81 -9,0 -16,1 -25,4 -3,1 -5,2 -7,4 -7,-31 -13,-62 -14,-88 z m 70,366 v 0 l -1,1 c -5,9 -15,16 -24,16 -8,0 -12,0 -18,-4 -1,-1 -2,-1 -4,-2 0,0 -9,-5 -10,-6 -1,-1 -5,-4 -5,-4 l -5,-4 c 0,0 -1,-1 -1,-1 -10,-9 -28,-29 -38,-43 0,0 -32,-50 -32,-50 -7,-10 -11,-18 -17,-29 -29,-55 -47,-123 -50,-196 -1,-10 -1,-20 -1,-30 0,-3 0,-6 0,-10 2,3 5,5 8,7 7,5 14,8 23,8 10,0 18,-4 25,-10 1,37 4,79 16,120 l 10,28 c 0,0 4,13 4,13 0,0 10,23 10,23 l 6,14 c 9,19 30,50 44,67 16,27 37,55 63,81 -1,3 -1,5 -4,10 z m 41,2 v 0 c -1,-1 -2,-1 -3,-2 -12,-11 -23,-21 -34,-32 18,-2 33,-18 33,-37 0,-2 0,-3 -1,-5 0,0 1,0 1,0 20,0 35,-16 36,-36 3,0 5,1 8,1 20,0 37,-17 37,-38 0,-12 -6,-24 -16,-31 -4,-3 -9,-2 -11,2 -3,4 -2,9 2,11 6,4 9,11 9,18 0,12 -9,22 -21,22 -7,0 -10,-1 -13,-4 -3,-3 -7,-3 -11,-1 -2,2 -3,4 -3,6 0,1 0,3 1,4 0,0 0,0 1,1 1,2 1,5 1,7 0,12 -9,22 -21,22 -5,0 -7,-1 -11,-4 -3,-3 -8,-2 -11,1 -3,3 -2,8 1,11 l 3,3 c 1,3 2,6 2,10 0,12 -9,22 -21,22 -5,0 -10,-2 -14,-6 -1,-1 -2,-1 -3,-2 -12,-14 -22,-29 -30,-43 0,-1 -1,-2 -1,-3 2,0 3,0 5,0 16,0 28,-8 34,-21 3,1 6,2 9,2 19,0 35,-15 37,-34 21,0 38,-18 38,-39 0,-1 0,-2 0,-4 2,1 4,2 7,2 1,0 1,0 2,0 6,0 12,-1 17,-4 5,7 10,13 18,20 15,13 23,16 34,20 l 11,5 16,8 c 6,3 12,6 18,9 3,6 7,15 7,18 0,14 -11,25 -24,25 -1,0 -1,0 -2,0 -5,1 -19,-2 -23,-5 0,0 0,0 0,0 l -4,-3 c -2,-5 -6,-9 -10,-12 -4,-3 -9,-2 -11,2 -3,4 -2,9 2,11 1,1 2,2 3,3 0,2 1,4 3,6 0,1 1,3 1,4 0,9 -7,15 -15,15 -5,0 -9,-2 -12,-6 -2,-3 -6,-4 -9,-3 -3,1 -5,5 -5,8 v 2 c 0,2 1,3 2,4 3,3 4,7 4,10 0,10 -7,17 -17,17 -2,0 -4,-1 -6,-2 -1,-1 -2,-1 -3,-2 0,0 0,0 0,0 0,0 0,0 0,0 -2,-1 -4,-3 -6,-4 -3,-3 -8,-2 -11,1 -3,3 -2,8 1,11 2,1 3,2 5,4 v 1 c 0,0 1,1 1,1 3,4 6,9 6,14 0,12 -9,21 -20,21 -5,0 -10,-2 -13,-5 z m 23,20 v 0 c 15,-4 26,-18 26,-34 5,4 11,8 17,11 -4,4 -6,10 -6,17 0,4 1,8 3,11 -4,1 -9,1 -13,1 -5,0 -9,1 -13,4 -4,-3 -9,-6 -13,-9 z m 327,62 v 0 c 11,0 23,8 23,20 0,12 -9,22 -21,22 0,0 -1,0 -1,0 -1,0 -1,1 -2,1 -37,10 -87,6 -143,-10 6,-2 11,-5 17,-7 19,-9 39,-19 58,-30 17,2 34,4 48,4 7,0 14,0 20,0 z m -46,-18 v 0 c 7,-5 14,-9 21,-14 1,2 1,3 1,4 0,5 -2,9 -6,11 -5,0 -11,-1 -16,-1 z m -14,-10 v 0 c -38,23 -76,42 -114,55 -62,22 -121,28 -164,17 -1,0 -1,-1 -2,-1 0,0 -1,0 -1,0 -11,0 -21,-10 -21,-22 0,-12 12,-20 23,-20 8,0 16,0 26,0 68,-3 166,-28 244,-77 l 7,-5 23,-15 c 1,16 12,30 26,34 -15,12 -32,23 -49,34 z m 93,-148 v 0 c -3,-3 -7,-3 -10,0 -3,2 -3,2 -8,2 -11,0 -21,-10 -21,-22 0,-3 0,-5 1,-8 0,-1 0,-1 0,-2 v -1 c 0,-3 -2,-7 -5,-8 -3,-1 -7,-1 -9,2 -3,3 -5,4 -12,4 -11,0 -21,-10 -21,-22 0,-7 3,-14 9,-18 4,-3 4,-8 2,-11 -3,-4 -7,-4 -11,-2 -10,7 -16,19 -16,31 0,21 16,38 37,38 3,0 5,0 8,-1 1,20 17,36 36,36 0,0 0,0 1,0 0,2 0,4 0,5 0,19 14,35 33,37 -3,3 -5,5 -8,8 -1,1 -3,2 -3,3 -7,7 -15,14 -22,21 -1,0 -2,1 -3,2 -4,3 -8,5 -13,5 -11,0 -20,-10 -20,-21 0,-4 4,-11 6,-14 2,-3 2,-7 0,-10 -2,-3 -6,-4 -9,-2 l -2,1 c 0,0 -1,0 -1,1 -1,1 -1,1 -3,1 h -3 c -9,0 -17,-8 -17,-17 0,-4 1,-7 4,-10 1,-1 1,-3 2,-4 v -2 c 0,-4 -2,-7 -5,-8 -3,-1 -7,0 -9,3 -3,4 -7,6 -12,6 -8,0 -15,-7 -15,-15 0,-1 0,-3 1,-4 2,-2 3,-4 3,-6 1,-1 2,-2 3,-3 4,-3 4,-8 2,-11 -3,-4 -8,-4 -11,-2 -5,3 -8,8 -10,12 l -2,1 c 0,0 0,0 0,0 -4,2 -8,4 -13,4 -13,0 -24,-11 -24,-25 0,-4 3,-11 6,-16 10,-4 19,-10 28,-16 l 12,-8 c 10,-7 16,-11 25,-18 7,-7 13,-12 19,-19 4,3 9,3 15,3 h 3 c 1,0 2,0 2,0 3,-1 5,-2 7,-2 0,2 0,3 0,4 0,22 17,39 38,39 v 0 c 3,18 18,32 37,32 2,0 5,-1 7,-1 5,14 18,22 36,22 2,0 3,0 5,0 -9,15 -20,31 -32,46 -1,0 -2,1 -2,2 -4,4 -9,6 -14,6 -11,0 -21,-10 -21,-22 0,-3 1,-8 2,-10 1,-1 2,-3 2,-3 1,-1 1,-3 1,-4 0,-2 -1,-4 -3,-6 z m 98,-157 v 0 c -2,-4 -5,-9 -8,-13 0,0 0,-1 1,-1 9,-32 15,-64 17,-95 7,6 17,10 28,10 9,0 17,-4 23,-10 -1,43 -7,81 -17,115 -4,13 -10,33 -17,52 v 0 c -6,16 -11,28 -16,36 -1,2 -3,4 -4,7 11,-37 9,-72 -7,-100 z m -20,-27 v 0 c -3,-2 -7,-4 -11,-6 -7,-3 -13,-4 -21,-4 5,-27 8,-56 9,-83 6,4 13,6 20,6 7,0 13,-2 18,-5 -2,30 -7,61 -15,93 z m -16,9 v 0 c 11,4 17,14 23,25 18,32 15,73 -5,117 0,0 -1,0 -1,1 -4,5 -10,8 -17,8 -7,0 -20,-2 -22,-15 0,0 0,-1 0,-1 0,-3 -1,-5 -4,-7 -2,-1 -5,-2 -7,-1 l -2,1 c -3,1 -5,2 -8,2 -12,0 -21,-9 -22,-21 1,-1 1,-2 1,-4 0,-2 -1,-3 -1,-5 -2,-3 -5,-4 -8,-4 l -6,1 c -12,0 -22,-11 -22,-23 0,-3 4,-17 6,-21 0,0 0,0 0,0 2,-2 3,-5 5,-7 l 7,-10 c 9,-14 28,-38 57,-40 0,0 0,0 0,0 1,0 3,0 4,0 9,0 15,0 23,3 z m 168,-88 v 0 c 0,10 0,20 -1,30 -4,77 -21,145 -52,202 -6,11 -12,21 -19,31 0,0 -33,51 -33,51 -9,13 -27,34 -38,43 0,0 -1,1 -1,1 l -4,4 c 0,0 -4,3 -6,5 -1,0 -10,6 -10,6 -5,3 -8,4 -12,5 -2,0 -5,0 -8,0 0,0 -1,0 -1,0 -10,0 -19,-6 -24,-14 0,-1 -1,-3 -1,-3 -1,-4 -2,-8 -2,-12 0,-1 0,-3 0,-5 19,-19 35,-39 49,-59 1,0 2,-1 2,-2 18,-22 42,-54 53,-74 5,-9 11,-22 17,-39 7,-19 14,-40 18,-53 10,-35 16,-74 17,-118 7,5 15,9 24,9 8,0 16,-3 23,-7 3,-2 5,-4 8,-6 0,3 0,6 0,8 z m -2,-42 v 0 c 0,0 0,0 0,0 0,7 -3,14 -8,20 -5,7 -13,11 -21,11 -12,0 -22,-9 -25,-22 -1,-4 -4,-6 -7,-6 -4,0 -7,2 -8,6 -3,11 -12,23 -23,23 -15,0 -26,-11 -26,-25 0,-4 -3,-7 -6,-8 -4,-1 -7,1 -9,5 -4,8 -12,13 -20,13 -9,0 -17,-6 -20,-14 0,0 0,-1 0,-1 0,-1 -1,-2 -1,-3 -1,-4 -5,-7 -9,-6 -4,1 -7,5 -6,9 0,2 1,4 2,5 1,32 -2,70 -9,104 -26,3 -49,19 -66,46 0,0 -7,9 -7,9 0,0 0,0 0,1 -7,13 -13,16 -23,19 -1,0 -2,0 -2,0 -3,0 -4,0 -5,0 1,-2 2,-4 4,-6 16,-27 23,-57 26,-82 1,0 3,-1 4,-1 5,5 11,6 15,6 6,0 11,-2 16,-7 4,-4 5,-8 6,-12 5,-1 9,-3 13,-7 6,-5 9,-12 9,-20 0,-1 0,-1 0,-2 l -2,-9 -2,-5 c -1,-3 -2,-6 -5,-7 -3,-1 -5,-1 -7,1 l -5,5 c -1,1 -2,2 -3,4 -1,-1 -2,-2 -2,-3 0,-2 1,-4 4,-8 4,-6 9,-14 10,-25 l 1,-9 v -5 c 5,-1 10,-3 13,-6 3,-3 6,-7 7,-14 8,9 20,14 32,14 17,0 32,-10 39,-24 8,8 20,13 32,13 17,0 31,-10 38,-26 4,2 9,3 14,3 7,0 15,-2 22,-6 5,-3 9,-6 13,-11 4,19 6,39 8,60 z m -42,-152 v 0 c 0,9 -4,16 -9,21 -5,5 -11,8 -19,8 -4,0 -10,-3 -14,-5 -2,-1 -5,-1 -8,0 -2,1 -4,4 -4,6 -2,15 -10,23 -23,23 -9,0 -17,-5 -22,-12 -2,-3 -6,-4 -9,-3 -3,1 -6,4 -6,8 0,16 -11,29 -25,29 -9,0 -17,-5 -22,-12 -2,-4 -7,-5 -11,-2 -4,2 -5,7 -2,11 8,12 21,19 35,19 17,0 32,-12 38,-28 7,5 15,8 24,8 17,0 30,-10 36,-27 4,2 8,3 13,3 10,0 19,-3 26,-9 6,-5 11,-11 14,-18 6,15 12,31 16,48 0,0 0,0 0,0 -1,8 -5,15 -11,20 -5,4 -12,6 -18,6 -5,0 -8,-2 -14,-5 -2,-1 -5,-2 -7,-1 -2,1 -4,3 -5,6 -3,13 -15,23 -27,23 -13,0 -23,-7 -27,-17 -1,-4 -6,-6 -10,-5 -1,0 -2,1 -3,2 -2,1 -3,3 -4,6 -2,15 -13,26 -28,26 -10,0 -19,-6 -24,-15 -2,-4 -7,-5 -11,-3 -1,0 -1,1 -2,2 v 0 c -2,-2 -4,-4 -7,-4 -3,0 -5,1 -7,4 -1,2 -2,3 -3,3 -3,0 -4,-1 -4,-2 -1,-1 -2,-3 -2,-10 0,-3 0,-6 1,-9 0,-2 0,-3 0,-5 0,-3 -1,-7 -2,-10 3,-5 4,-11 4,-16 0,-5 -4,-11 -5,-13 0,-1 -1,-1 -2,-2 7,-8 15,-17 18,-23 10,-17 11,-25 13,-38 l 1,-4 c 1,-5 2,-9 5,-15 13,-32 42,-52 71,-46 0,0 3,0 4,1 0,0 1,0 1,0 30,9 56,34 76,70 l 1,9 z"
   id="path269"
   style="fill:#ffffff;fill-opacity:1;stroke-width:1.00003499;stroke-miterlimit:4;stroke-dasharray:none" />
  <path
   class="fil0"
   d="m 1625,1294 4,-2 7,-3 c 9,-4 15,-4 24,-4 5,0 8,1 12,3 l 7,2 c 2,0 3,0 4,-2 0,-2 -1,-3 -2,-4 l -7,-2 c -4,-1 -8,-3 -13,-3 -10,0 -17,0 -27,4 l -7,4 -4,2 c -1,1 -2,3 -1,4 1,1 3,2 4,1 z"
   id="path271"
   style="fill:#ffffff;fill-opacity:1;stroke-width:1.00003499;stroke-miterlimit:4;stroke-dasharray:none" />
 <path
   style="fill:#ffffff;stroke:#ffffff;stroke-width:31.25109348;stroke-linecap:butt;stroke-linejoin:miter;stroke-opacity:1;fill-opacity:0.77134949;stroke-miterlimit:4;stroke-dasharray:none"
   d="m 2569.0353,688.12257 20.0186,1343.75153"
   id="path282" /><text
   xml:space="preserve"
   style="font-style:normal;font-variant:normal;font-weight:normal;font-stretch:normal;font-size:416.681px;line-height:1.25;font-family:'Bitstream Vera Serif';-inkscape-font-specification:'Bitstream Vera Serif';fill:#ffffff;fill-opacity:1;stroke:none;stroke-width:10.417"
   x="2797.7029"
   y="1592.3109"
   id="text286"><tspan
     id="tspan284"
     x="2797.7029"
     y="1592.3109"
     style="font-style:normal;font-variant:normal;font-weight:normal;font-stretch:normal;font-family:'Bitstream Vera Serif';-inkscape-font-specification:'Bitstream Vera Serif';stroke-width:10.417;fill:#ffffff;fill-opacity:1"><tspan
   id="tspan288"
   style="font-size:555.575px;fill:#ffffff;fill-opacity:1">U</tspan>NIVERSITÀ DI <tspan
   style="font-size:555.575px;fill:#ffffff;fill-opacity:1"
   id="tspan300">P</tspan>ISA</tspan></text></g>
</svg>
