<?xml version="1.0" encoding="utf-8"?>
<!-- Svg Vector Icons : http://www.onlinewebfonts.com/icon -->
<!DOCTYPE svg PUBLIC "-//W3C//DTD SVG 1.1//EN" "http://www.w3.org/Graphics/SVG/1.1/DTD/svg11.dtd">
<svg version="1.1" xmlns="http://www.w3.org/2000/svg" xmlns:xlink="http://www.w3.org/1999/xlink" x="0px" y="0px" viewBox="0 0 1000 1000" enable-background="new 0 0 1000 1000" xml:space="preserve">
<metadata> Svg Vector Icons : http://www.onlinewebfonts.com/icon </metadata>
<g><path d="M696,304H304v392h392V304z M990,451v-98h-98V206c0-53.9-44.1-98-98-98H647V10h-98v98h-98V10h-98v98H206c-53.9,0-98,44.1-98,98v147H10v98h98v98H10v98h98v147c0,53.9,44.1,98,98,98h147v98h98v-98h98v98h98v-98h147c53.9,0,98-44.1,98-98V647h98v-98h-98v-98H990z M794,794H206V206h588V794z"/></g>
</svg>