<?xml version="1.0" encoding="iso-8859-1"?>
<!-- Generator: Adobe Illustrator 19.0.0, SVG Export Plug-In . SVG Version: 6.00 Build 0)  -->
<svg version="1.1" id="Layer_1" xmlns="http://www.w3.org/2000/svg" xmlns:xlink="http://www.w3.org/1999/xlink" x="0px" y="0px"
	 viewBox="0 0 512 512" style="enable-background:new 0 0 512 512;" xml:space="preserve">
<g>
	<g>
		<path d="M480,0H32c-5.896,0-10.667,4.776-10.667,10.667v490.667C21.333,507.224,26.104,512,32,512h448
			c5.896,0,10.667-4.776,10.667-10.667V10.667C490.667,4.776,485.896,0,480,0z M469.333,490.667H42.667V21.333h426.667V490.667z"/>
	</g>
</g>
<g>
	<g>
		<path d="M437.333,42.667H266.667h-21.333H74.667C68.771,42.667,64,47.443,64,53.333v192v21.333v192
			c0,5.891,4.771,10.667,10.667,10.667h170.667h21.333h170.667c5.896,0,10.667-4.776,10.667-10.667v-192v-21.333v-192
			C448,47.443,443.229,42.667,437.333,42.667z M245.333,448h-160V266.667h160V448z M245.333,245.333h-160V64h160V245.333z
			 M426.667,448h-160V266.667h160V448z M426.667,245.333h-160V64h160V245.333z"/>
	</g>
</g>
<g>
</g>
<g>
</g>
<g>
</g>
<g>
</g>
<g>
</g>
<g>
</g>
<g>
</g>
<g>
</g>
<g>
</g>
<g>
</g>
<g>
</g>
<g>
</g>
<g>
</g>
<g>
</g>
<g>
</g>
</svg>
