<!DOCTYPE svg PUBLIC "-//W3C//DTD SVG 20010904//EN" "http://www.w3.org/TR/2001/REC-SVG-20010904/DTD/svg10.dtd">
<svg version="1.0" xmlns="http://www.w3.org/2000/svg" width="394px" height="428px" viewBox="0 0 3940 4280" preserveAspectRatio="xMidYMid meet">
<g id="layer101" fill="#A5AFB78C" stroke="none">
 <path d="M998 3617 c-460 -266 -846 -491 -857 -501 -21 -19 -21 -21 -21 -1026 l0 -1007 22 -20 c13 -11 399 -237 859 -502 617 -355 844 -481 867 -481 23 0 210 103 709 391 373 215 752 434 843 487 91 52 173 102 183 110 16 14 17 75 17 1022 0 947 -1 1008 -17 1022 -10 8 -92 58 -183 110 -91 53 -470 272 -843 487 -511 295 -686 391 -710 391 -24 0 -244 -123 -869 -483z"/>
 </g>
<g id="layer102" fill="#ffffff" stroke="none">
 <path d="M998 3617 c-460 -266 -846 -491 -857 -501 -21 -19 -21 -21 -21 -1026 l0 -1007 22 -20 c13 -11 399 -237 859 -502 617 -355 844 -481 867 -481 23 0 210 103 709 391 373 215 752 434 843 487 91 52 173 102 183 110 16 14 17 75 17 1022 0 947 -1 1008 -17 1022 -10 8 -92 58 -183 110 -91 53 -470 272 -843 487 -511 295 -686 391 -710 391 -24 0 -244 -123 -869 -483z m1775 -82 l797 -460 0 -985 0 -985 -797 -460 c-438 -253 -821 -474 -852 -491 l-56 -31 -850 491 -850 491 0 985 0 985 850 491 850 491 56 -31 c31 -17 414 -238 852 -491z"/>
 <path d="M935 2439 c-99 -9 -190 -32 -269 -68 -60 -28 -135 -81 -91 -65 117 42 152 47 295 47 124 0 159 -4 242 -26 172 -46 401 -147 618 -272 237 -137 472 -244 630 -286 107 -29 247 -30 335 -5 171 50 329 174 465 363 33 45 33 46 9 39 -180 -53 -433 -69 -634 -42 -200 28 -479 93 -846 196 -334 94 -584 133 -754 119z"/>
 </g>

</svg>